<svg xmlns="http://www.w3.org/2000/svg" viewBox="0 0 32 32" width="32" height="32">
  <defs>
    <linearGradient id="gradient" x1="0%" y1="0%" x2="100%" y2="100%">
      <stop offset="0%" style="stop-color:#007bff;stop-opacity:1" />
      <stop offset="100%" style="stop-color:#0056b3;stop-opacity:1" />
    </linearGradient>
  </defs>
  
  <!-- Background circle -->
  <circle cx="16" cy="16" r="15" fill="url(#gradient)" stroke="#ffffff" stroke-width="2"/>
  
  <!-- Q letter -->
  <path d="M8 8 Q8 6 10 6 L14 6 Q16 6 16 8 L16 12 Q16 14 14 14 L12 14 L14 16 L12 16 L10 14 Q8 14 8 12 Z M10 8 L10 12 L14 12 L14 8 Z" fill="#ffffff" stroke="#ffffff" stroke-width="0.5"/>
  
  <!-- C letter -->
  <path d="M18 8 Q18 6 20 6 L24 6 L24 8 L20 8 L20 12 L24 12 L24 14 L20 14 Q18 14 18 12 Z" fill="#ffffff" stroke="#ffffff" stroke-width="0.5"/>
  
  <!-- Monitoring/dashboard lines -->
  <rect x="6" y="20" width="8" height="1.5" fill="#ffffff" opacity="0.8"/>
  <rect x="6" y="22" width="12" height="1.5" fill="#ffffff" opacity="0.8"/>
  <rect x="6" y="24" width="10" height="1.5" fill="#ffffff" opacity="0.8"/>
  
  <!-- Small indicator dot -->
  <circle cx="26" cy="22" r="2" fill="#28a745"/>
</svg>