<svg xmlns="http://www.w3.org/2000/svg" viewBox="0 0 16 16" width="16" height="16">
  <defs>
    <linearGradient id="gradient" x1="0%" y1="0%" x2="100%" y2="100%">
      <stop offset="0%" style="stop-color:#007bff;stop-opacity:1" />
      <stop offset="100%" style="stop-color:#0056b3;stop-opacity:1" />
    </linearGradient>
  </defs>
  
  <!-- Background circle -->
  <circle cx="8" cy="8" r="7.5" fill="url(#gradient)" stroke="#ffffff" stroke-width="1"/>
  
  <!-- Q letter -->
  <path d="M4 4 Q4 3 5 3 L7 3 Q8 3 8 4 L8 6 Q8 7 7 7 L6 7 L7 8 L6 8 L5 7 Q4 7 4 6 Z M5 4 L5 6 L7 6 L7 4 Z" fill="#ffffff" stroke="#ffffff" stroke-width="0.2"/>
  
  <!-- C letter -->
  <path d="M9 4 Q9 3 10 3 L12 3 L12 4 L10 4 L10 6 L12 6 L12 7 L10 7 Q9 7 9 6 Z" fill="#ffffff" stroke="#ffffff" stroke-width="0.2"/>
  
  <!-- Monitoring lines -->
  <rect x="3" y="10" width="4" height="0.8" fill="#ffffff" opacity="0.8"/>
  <rect x="3" y="11" width="6" height="0.8" fill="#ffffff" opacity="0.8"/>
  <rect x="3" y="12" width="5" height="0.8" fill="#ffffff" opacity="0.8"/>
  
  <!-- Small indicator dot -->
  <circle cx="13" cy="11" r="1" fill="#28a745"/>
</svg>